<?xml version="1.0" encoding="utf-8"?>
<!-- Generator: Adobe Illustrator 16.0.0, SVG Export Plug-In . SVG Version: 6.00 Build 0)  -->
<!DOCTYPE svg PUBLIC "-//W3C//DTD SVG 1.1 Tiny//EN" "http://www.w3.org/Graphics/SVG/1.1/DTD/svg11-tiny.dtd">
<svg version="1.1" baseProfile="tiny" id="Layer_1" xmlns="http://www.w3.org/2000/svg" xmlns:xlink="http://www.w3.org/1999/xlink"
	 x="0px" y="0px" width="24px" height="24px" viewBox="0 0 24 24" xml:space="preserve" style="fill:#f0f0f0;">
<g>
	<path fill="#f0f0f0" d="M7.646,6.065h8.939c-0.212-1.349-1.068-2.488-2.252-3.134c0.012-0.014,0.031-0.021,0.04-0.037l1.403-2.222
		c0.113-0.178,0.046-0.407-0.15-0.51C15.434,0.06,15.184,0.12,15.07,0.299l-1.401,2.223c-0.021,0.031-0.028,0.065-0.036,0.099
		c-0.475-0.163-0.983-0.259-1.516-0.259c-0.539,0-1.053,0.097-1.531,0.263c-0.01-0.036-0.018-0.071-0.038-0.103L9.145,0.299
		C9.031,0.12,8.783,0.06,8.589,0.162c-0.196,0.104-0.263,0.333-0.15,0.51l1.403,2.222c0.01,0.018,0.03,0.026,0.045,0.042
		C8.709,3.583,7.856,4.72,7.646,6.065z M13.898,3.658c0.328,0,0.593,0.266,0.593,0.594c0,0.329-0.265,0.594-0.593,0.594
		s-0.594-0.266-0.594-0.594C13.305,3.924,13.57,3.658,13.898,3.658z M10.292,3.658c0.327,0,0.593,0.266,0.593,0.594
		c0,0.329-0.266,0.594-0.593,0.594c-0.328,0-0.594-0.266-0.594-0.594C9.698,3.924,9.964,3.658,10.292,3.658z M13.971,17.972
		c0.599,0,1.088-0.324,1.088-0.722v-2.277c1.033-0.112,1.491-0.735,1.491-1.81c0-1.191,0-6.304,0-6.304H7.688
		c0,0-0.01,4.997-0.01,6.28c0,1.154,0.462,1.722,1.469,1.828v2.283c0,0.398,0.488,0.722,1.088,0.722s1.089-0.324,1.089-0.722v-2.261
		c0.511,0.002,1.046,0.003,1.559,0.005v2.256C12.882,17.648,13.37,17.972,13.971,17.972z M16.361,21.119
		c-0.785,0-1.422,0.62-1.422,1.385s0.637,1.385,1.422,1.385s1.421-0.62,1.421-1.385S17.146,21.119,16.361,21.119z M19.275,18.91
		H4.725c-0.402,0-0.727,0.32-0.727,0.715c0,0.395,0.324,0.715,0.727,0.715h14.551c0.402,0,0.727-0.321,0.727-0.715
		C20.002,19.229,19.678,18.91,19.275,18.91z M21.788,3.043c-0.425-0.425-0.997-0.541-1.28-0.259l-3.127,3.127
		c-0.282,0.282-0.166,0.856,0.258,1.28c0.425,0.424,0.999,0.541,1.281,0.259l3.127-3.127C22.329,4.041,22.212,3.466,21.788,3.043z
		 M6.521,7.446C6.947,7.02,7.062,6.438,6.773,6.15L3.602,2.979C3.313,2.69,2.733,2.805,2.306,3.231
		c-0.428,0.428-0.542,1.01-0.253,1.298L5.224,7.7C5.513,7.989,6.093,7.874,6.521,7.446z M7.644,21.119
		c-0.784,0-1.421,0.62-1.421,1.385s0.637,1.385,1.421,1.385c0.785,0,1.422-0.62,1.422-1.385S8.429,21.119,7.644,21.119z"/>
</g>
</svg>
